<svg id="katman_1" data-name="katman 1" xmlns="http://www.w3.org/2000/svg" viewBox="0 0 309.54 289.49"><defs><style>.cls-1{fill:#ceb817;}</style></defs><title>logo</title><path id="paperplane" class="cls-1" d="M335,95.25a4.94,4.94,0,0,0-5.42,0l-148,98.64a4.93,4.93,0,0,0,.9,8.68l38.59,15.45,18.15,31.75a4.91,4.91,0,0,0,4.23,2.48h.05a4.94,4.94,0,0,0,4.23-2.39l10.24-17.08,47.82,19.12a4.9,4.9,0,0,0,4.24-.29,4.91,4.91,0,0,0,2.45-3.48l24.66-148A5,5,0,0,0,335,95.25ZM194.93,196.94l114.3-76.21-83.1,89a9.27,9.27,0,0,0-1.32-.8Zm34.79,16.22,0,0,93.43-100-79.65,124.1Zm74.12,27.34-42.13-16.85a9.66,9.66,0,0,0-3.07-.59L323.51,122.5Z" transform="translate(-103.61 -94.46)"/><path d="M111,344.25v31.49h-7.35V344.25Z" transform="translate(-103.61 -94.46)"/><path d="M131.23,375.74l-7.76-25.67v25.67h-6.19V344.25h11.49l5.52,18.85,5.82-18.85h11.52v31.49H144.2V350.07l-7.92,25.67Z" transform="translate(-103.61 -94.46)"/><path d="M165.15,344.25v14.8l9.87-14.8h7.06l-7.57,11.24L184,375.74h-8.13l-6.28-13.67-4.41,6.45v7.22H157.9V344.25Z" transform="translate(-103.61 -94.46)"/><path d="M187.68,344.25h14.67a14.13,14.13,0,0,1,5.93,1,8.67,8.67,0,0,1,3.27,2.77,7.32,7.32,0,0,1,1.29,4.38q0,5.22-5.67,7a8.07,8.07,0,0,1,4.91,2.93,7.78,7.78,0,0,1,1.64,4.78,8.18,8.18,0,0,1-2.67,6.1q-2.69,2.58-8.7,2.58H187.68Zm7.36,5.56v6.9h5.58c2,0,3.33-.4,3.86-1.21a4.27,4.27,0,0,0,.8-2.32,3.28,3.28,0,0,0-.66-2.06,2.84,2.84,0,0,0-1.44-1.09,14.23,14.23,0,0,0-3.09-.22Zm0,12.5v7.59h5.66a6.46,6.46,0,0,0,4.1-1,3.78,3.78,0,0,0,0-5.47,5.38,5.38,0,0,0-3.82-1.11Z" transform="translate(-103.61 -94.46)"/><path class="cls-1" d="M244.21,375.74l-7.77-25.67v25.67h-6.18V344.25h11.48l5.53,18.85,5.81-18.85H264.6v31.49h-7.42V350.07l-7.92,25.67Z" transform="translate(-103.61 -94.46)"/><path class="cls-1" d="M291.47,365.24h-15c0,.42,0,.78,0,1.09a5,5,0,0,0,1.32,3.76,4.48,4.48,0,0,0,3.18,1.27c2.29,0,3.66-1.23,4.12-3.67l6.23.46q-2.6,8.07-10.58,8.07a11.71,11.71,0,0,1-5.92-1.39,11,11,0,0,1-4-4.07,12.37,12.37,0,0,1-1.58-6.42,12.64,12.64,0,0,1,3.17-9,11.22,11.22,0,0,1,15.87-.24C290.4,357.24,291.47,360.62,291.47,365.24Zm-15-4h8.28c-.22-3.2-1.53-4.79-3.94-4.79C278.21,356.46,276.77,358.05,276.46,361.25Z" transform="translate(-103.61 -94.46)"/><path class="cls-1" d="M313.25,358.07l-5,1.34q-.87-3.17-4.54-3.16c-2.31,0-3.46.7-3.46,2.1a1.6,1.6,0,0,0,.63,1.33,8.43,8.43,0,0,0,3.31.84,30.61,30.61,0,0,1,5.91,1.22,6,6,0,0,1,3,2.33,6.93,6.93,0,0,1,1.12,4,7.24,7.24,0,0,1-2.73,5.86q-2.73,2.27-7.65,2.26-8.89,0-10.63-6.89l5.79-.86c.47,2.09,2.2,3.14,5.16,3.14a6.21,6.21,0,0,0,2.89-.61,1.85,1.85,0,0,0,1.17-1.66c0-1.08-.86-1.71-2.6-1.91q-7.06-.87-9.29-2.71a6.24,6.24,0,0,1-2.22-5.1,6.85,6.85,0,0,1,2.58-5.49c1.72-1.45,4.14-2.17,7.24-2.17a10.64,10.64,0,0,1,5.91,1.45A9.07,9.07,0,0,1,313.25,358.07Z" transform="translate(-103.61 -94.46)"/><path class="cls-1" d="M335.6,358.07l-5,1.34q-.87-3.17-4.54-3.16c-2.31,0-3.46.7-3.46,2.1a1.6,1.6,0,0,0,.63,1.33,8.43,8.43,0,0,0,3.31.84,30.61,30.61,0,0,1,5.91,1.22,6,6,0,0,1,3,2.33,6.93,6.93,0,0,1,1.12,4,7.24,7.24,0,0,1-2.73,5.86q-2.73,2.27-7.65,2.26-8.9,0-10.63-6.89l5.79-.86c.47,2.09,2.2,3.14,5.16,3.14a6.21,6.21,0,0,0,2.89-.61,1.85,1.85,0,0,0,1.17-1.66c0-1.08-.86-1.71-2.6-1.91q-7.07-.87-9.29-2.71a6.24,6.24,0,0,1-2.22-5.1,6.85,6.85,0,0,1,2.58-5.49c1.72-1.45,4.14-2.17,7.24-2.17a10.64,10.64,0,0,1,5.91,1.45A9,9,0,0,1,335.6,358.07Z" transform="translate(-103.61 -94.46)"/><path class="cls-1" d="M360.83,375.74h-6.66a16.28,16.28,0,0,1-.33-3.65,9.57,9.57,0,0,1-3.48,3.31,9.12,9.12,0,0,1-3.95.82,7.71,7.71,0,0,1-5.29-1.77,6.08,6.08,0,0,1-2-4.78,7.38,7.38,0,0,1,1.18-4,7.68,7.68,0,0,1,3.78-2.9q2.6-1,9.49-1.56v-1.33q0-3.39-3.39-3.39-3.6,0-4,3.39l-6.34-.6a7.2,7.2,0,0,1,3.76-5.63,14.91,14.91,0,0,1,7.1-1.66,17.51,17.51,0,0,1,4.48.55,7.41,7.41,0,0,1,3.27,1.66,5.69,5.69,0,0,1,1.59,2.34,15.13,15.13,0,0,1,.42,4.3v10.57A16.43,16.43,0,0,0,360.83,375.74Zm-7.28-11.17q-7.2.72-7.2,4.36a3.11,3.11,0,0,0,.76,2.11,2.65,2.65,0,0,0,2.16.89,3.76,3.76,0,0,0,3-1.51,5.72,5.72,0,0,0,1.24-3.72Z" transform="translate(-103.61 -94.46)"/><path class="cls-1" d="M389.37,353a9.37,9.37,0,0,0-1.83-.23,2.38,2.38,0,0,0-2.67,2,6.28,6.28,0,0,1,1.87,4.43,6.14,6.14,0,0,1-2.76,5.26q-2.76,2-8,2a18.44,18.44,0,0,1-3.59-.35,2,2,0,0,0-1.18,1.78,1.54,1.54,0,0,0,1,1.59A19.56,19.56,0,0,0,377,370a60.2,60.2,0,0,1,7.4.67,6.08,6.08,0,0,1,3.41,1.89,5.26,5.26,0,0,1,1.39,3.73,6.59,6.59,0,0,1-3,5.43q-3,2.2-10.5,2.21c-4.72,0-7.91-.51-9.55-1.54a4.49,4.49,0,0,1-2.47-3.89q0-3.12,4-4.2c-2-1-3-2.37-3-4.15q0-3.35,4.66-5.21c-2.76-1.14-4.13-3-4.13-5.7a6.2,6.2,0,0,1,2.85-5.27c1.9-1.36,4.52-2,7.87-2a19.08,19.08,0,0,1,6.16,1,6.45,6.45,0,0,1,1.17-3.26c.64-.85,2-1.28,4.07-1.28a10.22,10.22,0,0,1,1.94.18Zm-18,22.61a1.77,1.77,0,0,0-1,.55,1.74,1.74,0,0,0-.64,1.34c0,1,.67,1.7,2,2a25,25,0,0,0,4.71.39,15.91,15.91,0,0,0,4.94-.53,1.81,1.81,0,0,0,1.42-1.71c0-.6-.39-1.06-1.19-1.38s-2.9-.48-6.33-.48l-1.38,0a12.62,12.62,0,0,1-1.71-.07A4.43,4.43,0,0,0,371.4,375.58ZM376,355.67a3.82,3.82,0,0,0-2.77,1,3.33,3.33,0,0,0-1,2.52q0,3.56,3.8,3.56a3.94,3.94,0,0,0,2.89-1,3.53,3.53,0,0,0,.05-4.95A3.87,3.87,0,0,0,376,355.67Z" transform="translate(-103.61 -94.46)"/><path class="cls-1" d="M413.15,365.24h-15c0,.42,0,.78,0,1.09a5,5,0,0,0,1.33,3.76,4.44,4.44,0,0,0,3.17,1.27c2.29,0,3.67-1.23,4.13-3.67l6.22.46q-2.6,8.07-10.58,8.07a11.73,11.73,0,0,1-5.92-1.39,11,11,0,0,1-4-4.07,12.37,12.37,0,0,1-1.58-6.42,12.64,12.64,0,0,1,3.17-9,11.22,11.22,0,0,1,15.87-.24C412.07,357.24,413.15,360.62,413.15,365.24Zm-15-4h8.28c-.21-3.2-1.53-4.79-3.94-4.79C399.88,356.46,398.44,358.05,398.13,361.25Z" transform="translate(-103.61 -94.46)"/></svg>